<svg t="1702039990718" class="icon" viewBox="0 0 1024 1024" version="1.1" xmlns="http://www.w3.org/2000/svg" p-id="667" width="200" height="200"><path d="M960 576l-64 0c-35.392 0-64-28.672-64-64s28.608-64 64-64l64 0c35.392 0 64 28.672 64 64S995.392 576 960 576zM828.8 285.76c-25.024 24.96-65.536 24.96-90.56 0-25.024-25.024-25.024-65.536 0-90.56l45.312-45.248c24.96-25.024 65.472-25.024 90.496 0s25.024 65.472 0 90.496L828.8 285.76zM512 768c-141.376 0-256-114.624-256-256s114.624-256 256-256 256 114.624 256 256S653.376 768 512 768zM512 384C441.344 384 384 441.344 384 512s57.344 128 128 128 128-57.344 128-128S582.656 384 512 384zM512 192C476.608 192 448 163.328 448 128L448 64c0-35.328 28.608-64 64-64s64 28.672 64 64l0 64C576 163.328 547.392 192 512 192zM195.264 285.76 149.952 240.448c-25.024-25.024-25.024-65.472 0-90.496s65.536-25.024 90.56 0L285.76 195.2c25.024 25.024 25.024 65.536 0 90.56C260.736 310.72 220.16 310.72 195.264 285.76zM192 512c0 35.328-28.608 64-64 64L64 576C28.608 576 0 547.328 0 512s28.608-64 64-64l64 0C163.392 448 192 476.672 192 512zM195.264 738.24c24.96-25.024 65.472-25.024 90.496 0s25.024 65.472 0 90.496l-45.248 45.248c-25.024 25.024-65.536 25.024-90.56 0-25.024-24.96-25.024-65.472 0-90.496L195.264 738.24zM512 832c35.392 0 64 28.608 64 64l0 64c0 35.392-28.608 64-64 64s-64-28.608-64-64l0-64C448 860.608 476.608 832 512 832zM828.8 738.24l45.248 45.248c25.024 25.024 25.024 65.536 0 90.496-25.024 25.024-65.536 25.024-90.496 0l-45.312-45.248c-25.024-25.024-25.024-65.472 0-90.496S803.84 713.28 828.8 738.24z" fill="#000000" p-id="668"></path></svg>