<?xml version="1.0" standalone="no"?><!DOCTYPE svg PUBLIC "-//W3C//DTD SVG 1.1//EN" "http://www.w3.org/Graphics/SVG/1.1/DTD/svg11.dtd"><svg t="1670054490602" class="icon" viewBox="0 0 1024 1024" version="1.1" xmlns="http://www.w3.org/2000/svg" p-id="6740" xmlns:xlink="http://www.w3.org/1999/xlink" width="200" height="200"><path d="M511.957333 85.930667a42.666667 42.666667 0 0 0-42.666666 42.666666v85.333334a42.666667 42.666667 0 0 0 85.333333 0v-85.333334a42.666667 42.666667 0 0 0-42.666667-42.666666zM238.634667 196.608c-10.922667 0-22.357333 3.669333-30.677334 11.989333a42.24 42.24 0 0 0 0 59.989334L267.946667 329.941333a43.946667 43.946667 0 0 0 61.354666 0 43.946667 43.946667 0 0 0 0-61.354666L267.946667 208.64a40.106667 40.106667 0 0 0-29.312-11.946667z m546.645333 0a40.106667 40.106667 0 0 0-29.312 11.989333L694.613333 268.586667a43.946667 43.946667 0 0 0 0 61.354666 43.946667 43.946667 0 0 0 61.354667 0l59.989333-61.354666a42.24 42.24 0 0 0 0-59.989334 43.221333 43.221333 0 0 0-30.677333-11.946666z m-273.322667 102.656A213.333333 213.333333 0 1 0 512 725.973333a213.333333 213.333333 0 0 0-0.042667-426.666666z m0 85.333333a128 128 0 1 1 0 256 128 128 0 0 1 0-256z m-384 85.333334a42.666667 42.666667 0 0 0 0 85.333333h85.333334a42.666667 42.666667 0 0 0 0-85.333333h-85.333334z m682.666667 0a42.666667 42.666667 0 0 0 0 85.333333h85.333333a42.666667 42.666667 0 0 0 0-85.333333h-85.333333z m-512 213.333333c-10.922667 0-22.314667 3.669333-30.677333 11.989333l-59.989334 61.354667a42.24 42.24 0 0 0 0 59.989333 42.24 42.24 0 0 0 59.989334 0l61.354666-59.989333a43.946667 43.946667 0 0 0 0-61.354667 43.264 43.264 0 0 0-30.677333-11.946666z m426.666667 0c-10.922667 0-22.314667 3.669333-30.677334 11.989333a43.946667 43.946667 0 0 0 0 61.354667l61.354667 59.989333a42.24 42.24 0 0 0 59.989333 0 42.24 42.24 0 0 0 0-59.989333l-59.989333-61.354667a43.264 43.264 0 0 0-30.677333-11.946666z m-213.333334 85.333333a42.666667 42.666667 0 0 0-42.666666 42.666667v85.333333a42.666667 42.666667 0 0 0 85.333333 0v-85.333333a42.666667 42.666667 0 0 0-42.666667-42.666667z" fill="#ffffff" p-id="6741"></path></svg>